<?xml version="1.0" encoding="UTF-8" standalone="no"?>
<!-- Created with Inkscape (http://www.inkscape.org/) -->

<svg
   xmlns:dc="http://purl.org/dc/elements/1.1/"
   xmlns:cc="http://creativecommons.org/ns#"
   xmlns:rdf="http://www.w3.org/1999/02/22-rdf-syntax-ns#"
   xmlns:svg="http://www.w3.org/2000/svg"
   xmlns="http://www.w3.org/2000/svg"
   version="1.1"
   width="571"
   height="168"
   id="svg3528">
  <defs
     id="defs3530" />
  <metadata
     id="metadata3533">
    <rdf:RDF>
      <cc:Work
         rdf:about="">
        <dc:format>image/svg+xml</dc:format>
        <dc:type
           rdf:resource="http://purl.org/dc/dcmitype/StillImage" />
        <dc:title></dc:title>
      </cc:Work>
    </rdf:RDF>
  </metadata>
  <g
     transform="translate(0,-884.36218)"
     id="layer1">
    <path
       d="m 103.92788,1040.8025 0,-33.0099 c 0.75472,-14.13746 9.79668,-21.173 21.42307,-21.13427 l 33.52318,0.20126 c 13.75565,-0.0564 19.65921,10.23927 19.43946,17.91391 l 0.59506,36.6328 z"
       id="path5304-2"
       style="fill:#ffffff;fill-opacity:0.70588235;stroke:#ffffff;stroke-width:4.74737072;stroke-linecap:butt;stroke-linejoin:miter;stroke-miterlimit:4;stroke-opacity:1;stroke-dasharray:none" />
    <path
       d="m 190.43564,1041.3335 0,-39.5853 c 0.90506,-16.9538 11.74815,-25.39075 25.6905,-25.34431 l 40.20092,0.24135 c 16.49581,-0.0675 23.57539,12.27893 23.31178,21.48229 l 0.71364,43.93007 z"
       id="path5308-5"
       style="fill:#ffffff;fill-opacity:0.70588235;stroke:#ffffff;stroke-width:5.69303989;stroke-linecap:butt;stroke-linejoin:miter;stroke-miterlimit:4;stroke-opacity:1;stroke-dasharray:none" />
    <path
       d="m 391.1569,1041.9303 0,-33.0099 c 0.75478,-14.13769 9.79662,-21.17323 21.42306,-21.1345 l 33.52313,0.20126 c 13.75571,-0.0564 19.65926,10.23927 19.43946,17.91404 l 0.59507,36.6329 z"
       id="path5316-1"
       style="fill:#ffffff;fill-opacity:0.70588235;stroke:#ffffff;stroke-width:4.74737072;stroke-linecap:butt;stroke-linejoin:miter;stroke-miterlimit:4;stroke-opacity:1;stroke-dasharray:none" />
    <path
       d="m 113.13709,950.08424 c 1.33714,-30.55711 27.4477,-30.05204 27.52665,-30.05204 14.28462,1.64211 26.53804,8.2393 27.7792,29.7995 -1.44024,11.56207 -4.58333,23.33864 -25.50635,27.27412 -10.1594,1.52951 -27.43533,-4.85551 -29.7995,-27.02158 z"
       id="path4025"
       style="fill:none;stroke:#ffffff;stroke-width:5;stroke-linecap:butt;stroke-linejoin:miter;stroke-miterlimit:4;stroke-opacity:1;stroke-dasharray:none" />
    <path
       d="m 114.23757,950.55422 c 1.27171,-29.38314 26.10472,-28.89748 26.17981,-28.89748 13.5857,1.57903 25.23957,7.92276 26.42,28.65465 -1.36976,11.11787 -4.35907,22.442 -24.25836,26.22629 -9.66231,1.47075 -26.09295,-4.66897 -28.34145,-25.98346 z"
       id="path4025-3"
       style="opacity:0.75;fill:#ffffff;fill-opacity:1;stroke:none" />
    <path
       d="m 400.65176,951.23964 c 1.33714,-30.55711 27.4477,-30.05204 27.52665,-30.05204 14.28462,1.64211 26.53804,8.2393 27.7792,29.7995 -1.44024,11.56207 -4.58333,23.33864 -25.50635,27.27412 -10.1594,1.52951 -27.43533,-4.85551 -29.7995,-27.02158 z"
       id="path4025-1"
       style="fill:none;stroke:#ffffff;stroke-width:5;stroke-linecap:butt;stroke-linejoin:miter;stroke-miterlimit:4;stroke-opacity:1;stroke-dasharray:none" />
    <path
       d="m 401.75224,951.70962 c 1.27171,-29.38314 26.10472,-28.89748 26.17981,-28.89748 13.5857,1.57903 25.23957,7.92276 26.42,28.65465 -1.36976,11.11787 -4.35907,22.442 -24.25836,26.22629 -9.66231,1.47075 -26.09295,-4.66897 -28.34145,-25.98346 z"
       id="path4025-3-2"
       style="opacity:0.75;fill:#ffffff;fill-opacity:1;stroke:none" />
    <path
       d="m 202.0945,935.51899 c 1.63324,-34.6645 33.52546,-34.09156 33.6219,-34.09156 17.44766,1.86285 32.41436,9.34683 33.93033,33.80511 -1.75914,13.11627 -5.5982,26.47573 -31.15422,30.94024 -12.40899,1.7351 -33.51033,-5.50817 -36.39801,-30.65379 z"
       id="path4025-33"
       style="fill:none;stroke:#ffffff;stroke-width:5.88560152;stroke-linecap:butt;stroke-linejoin:miter;stroke-miterlimit:4;stroke-opacity:1;stroke-dasharray:none" />
    <path
       d="m 203.43868,936.05217 c 1.55329,-33.33277 31.88508,-32.78182 31.9768,-32.78182 16.59398,1.79127 30.82837,8.98772 32.27017,32.50638 -1.67305,12.61223 -5.3243,25.45862 -29.62988,29.75158 -11.80184,1.6684 -31.87071,-5.29659 -34.61709,-29.47614 z"
       id="path4025-3-4"
       style="opacity:0.75;fill:#ffffff;fill-opacity:1;stroke:none" />
    <path
       d="m 292.43254,1041.947 0,-39.5853 c 0.90506,-16.95379 11.74815,-25.39079 25.6905,-25.34429 l 40.20092,0.2413 c 16.49581,-0.067 23.57539,12.2789 23.31178,21.4823 l 0.71364,43.93009 z"
       id="path5308-5-1"
       style="fill:#ffffff;fill-opacity:0.70588235;stroke:#ffffff;stroke-width:5.69303989;stroke-linecap:butt;stroke-linejoin:miter;stroke-miterlimit:4;stroke-opacity:1;stroke-dasharray:none" />
    <path
       d="m 303.10977,935.26645 c 1.63324,-34.6645 33.52546,-34.09156 33.6219,-34.09156 17.44766,1.86285 32.41436,9.34683 33.93033,33.80511 -1.75914,13.11627 -5.5982,26.47573 -31.15422,30.94024 -12.40899,1.7351 -33.51033,-5.50817 -36.39801,-30.65379 z"
       id="path4025-33-7"
       style="fill:none;stroke:#ffffff;stroke-width:5.88560152;stroke-linecap:butt;stroke-linejoin:miter;stroke-miterlimit:4;stroke-opacity:1;stroke-dasharray:none" />
    <path
       d="m 304.45395,935.79963 c 1.55329,-33.33277 31.88508,-32.78182 31.9768,-32.78182 16.59398,1.79127 30.82837,8.98772 32.27017,32.50638 -1.67305,12.61223 -5.3243,25.45862 -29.62988,29.75158 -11.80184,1.6684 -31.87071,-5.29659 -34.61709,-29.47614 z"
       id="path4025-3-4-4"
       style="opacity:0.75;fill:#ffffff;fill-opacity:1;stroke:none" />
  </g>
</svg>
