<?xml version="1.0" encoding="UTF-8" standalone="no"?>
<!-- Created with Inkscape (http://www.inkscape.org/) -->

<svg
   xmlns:dc="http://purl.org/dc/elements/1.1/"
   xmlns:cc="http://creativecommons.org/ns#"
   xmlns:rdf="http://www.w3.org/1999/02/22-rdf-syntax-ns#"
   xmlns:svg="http://www.w3.org/2000/svg"
   xmlns="http://www.w3.org/2000/svg"
   xmlns:sodipodi="http://sodipodi.sourceforge.net/DTD/sodipodi-0.dtd"
   xmlns:inkscape="http://www.inkscape.org/namespaces/inkscape"
   version="1.1"
   width="1473"
   height="320"
   id="svg3528"
   inkscape:version="0.48.4 r9939"
   sodipodi:docname="Mode_HitIt_plain.svg">
  <sodipodi:namedview
     pagecolor="#ffffff"
     bordercolor="#666666"
     borderopacity="1"
     objecttolerance="10"
     gridtolerance="10"
     guidetolerance="10"
     inkscape:pageopacity="0"
     inkscape:pageshadow="2"
     inkscape:window-width="1600"
     inkscape:window-height="832"
     id="namedview3103"
     showgrid="false"
     inkscape:zoom="0.27458593"
     inkscape:cx="983.11062"
     inkscape:cy="-77.674824"
     inkscape:window-x="-8"
     inkscape:window-y="295"
     inkscape:window-maximized="1"
     inkscape:current-layer="layer1" />
  <defs
     id="defs3530">
    <inkscape:path-effect
       effect="spiro"
       id="path-effect4157-4" />
    <inkscape:path-effect
       effect="spiro"
       id="path-effect4155-0" />
    <inkscape:path-effect
       effect="spiro"
       id="path-effect4153-9" />
    <inkscape:path-effect
       effect="spiro"
       id="path-effect4151-4" />
    <inkscape:path-effect
       effect="spiro"
       id="path-effect3320" />
    <inkscape:path-effect
       effect="spiro"
       id="path-effect3318" />
    <inkscape:path-effect
       effect="spiro"
       id="path-effect3316" />
    <inkscape:path-effect
       effect="spiro"
       id="path-effect3314" />
  </defs>
  <metadata
     id="metadata3533">
    <rdf:RDF>
      <cc:Work
         rdf:about="">
        <dc:format>image/svg+xml</dc:format>
        <dc:type
           rdf:resource="http://purl.org/dc/dcmitype/StillImage" />
        <dc:title />
      </cc:Work>
    </rdf:RDF>
  </metadata>
  <g
     transform="translate(0,-732.36218)"
     id="layer1">
    <path
       d="m 611.87372,849.67811 c 67.76,-85.08722 200.3,-80.75148 260.67,3.98876 8.79,29.38841 7.77,57.53312 -4.42,84.26266 -76.48,70.99787 -175.65,75.43597 -254.78,-2.49302 -10.67,-27.55396 -16.77,-55.57182 -1.47,-85.7584 z"
       id="path3008-1"
       style="opacity:0.75;fill:#ffffff;fill-opacity:1;stroke:none"
       inkscape:connector-curvature="0" />
    <path
       d="m 613.68372,934.78215 c -36.74,29.54415 -82.87,47.23088 -129.95,49.82502 -18.21,1.00328 -36.53,-0.19447 -54.46,-3.55887"
       id="path3290"
       style="fill:none;stroke:#ffffff;stroke-width:10.59887505;stroke-linecap:butt;stroke-linejoin:miter;stroke-miterlimit:4;stroke-opacity:1;stroke-dasharray:none"
       inkscape:connector-curvature="0" />
    <path
       d="m 609.90372,851.10681 c -36.75,-29.54421 -82.88,-47.23095 -129.96,-49.82502 -18.2,-1.00325 -36.53,0.19453 -54.45,3.55898"
       id="path3292"
       style="fill:none;stroke:#ffffff;stroke-width:10.59887505;stroke-linecap:butt;stroke-linejoin:miter;stroke-miterlimit:4;stroke-opacity:1;stroke-dasharray:none"
       inkscape:connector-curvature="0" />
    <path
       d="m 445.73372,782.94253 c -7.14,8.23102 -20.71,22.38658 -20.71,22.38658 l 23.52,18.68453 0,0"
       id="path3294"
       style="fill:none;stroke:#ffffff;stroke-width:10.59887505;stroke-linecap:butt;stroke-linejoin:miter;stroke-miterlimit:4;stroke-opacity:1;stroke-dasharray:none"
       inkscape:connector-curvature="0" />
    <path
       d="m 445.01372,1003.6267 c -7.15,-8.23117 -20.71,-22.38672 -20.71,-22.38672 l 23.51,-18.68433 0,0"
       id="path3296"
       style="fill:none;stroke:#ffffff;stroke-width:10.59887505;stroke-linecap:butt;stroke-linejoin:miter;stroke-miterlimit:4;stroke-opacity:1;stroke-dasharray:none"
       inkscape:connector-curvature="0" />
    <path
       d="m 870.12372,941.07358 c 36.74,29.54411 82.87,47.2308 129.94998,49.82491 18.21,1.00327 36.54,-0.19448 54.46,-3.55887"
       id="path3302"
       style="fill:none;stroke:#ffffff;stroke-width:10.59887505;stroke-linecap:butt;stroke-linejoin:miter;stroke-miterlimit:4;stroke-opacity:1;stroke-dasharray:none"
       inkscape:connector-curvature="0" />
    <path
       d="m 873.90372,857.39824 c 36.75,-29.54426 82.88,-47.23104 129.95998,-49.82513 18.21,-1.00326 36.53,0.19452 54.45,3.55898"
       id="path3304"
       style="fill:none;stroke:#ffffff;stroke-width:10.59887505;stroke-linecap:butt;stroke-linejoin:miter;stroke-miterlimit:4;stroke-opacity:1;stroke-dasharray:none"
       inkscape:connector-curvature="0" />
    <path
       d="m 1038.0737,789.23385 c 7.14,8.23113 20.71,22.38668 20.71,22.38668 l -23.52,18.68444 0,0"
       id="path3306"
       style="fill:none;stroke:#ffffff;stroke-width:10.59887505;stroke-linecap:butt;stroke-linejoin:miter;stroke-miterlimit:4;stroke-opacity:1;stroke-dasharray:none"
       inkscape:connector-curvature="0" />
    <path
       d="m 1038.8037,1009.918 c 7.14,-8.2311 20.71,-22.3867 20.71,-22.3867 l -23.52,-18.68433 0,0"
       id="path3308"
       style="fill:none;stroke:#ffffff;stroke-width:10.59887505;stroke-linecap:butt;stroke-linejoin:miter;stroke-miterlimit:4;stroke-opacity:1;stroke-dasharray:none"
       inkscape:connector-curvature="0" />
    <rect
       width="155.18965"
       height="118.65352"
       ry="19.258966"
       x="1078.0974"
       y="760.14307"
       id="rect4094"
       style="fill:none;stroke:#ffffff;stroke-width:10.81563091;stroke-linecap:butt;stroke-linejoin:miter;stroke-miterlimit:4;stroke-opacity:1;stroke-dasharray:none;stroke-dashoffset:0" />
    <rect
       width="29.787916"
       height="117.42419"
       ry="14.506644"
       x="1082.0037"
       y="758.02484"
       id="rect4086"
       style="opacity:0.75;fill:#fafaff;fill-opacity:1;fill-rule:nonzero;stroke:none" />
    <rect
       width="155.18965"
       height="118.65352"
       ry="19.258966"
       x="1078.4099"
       y="905.41156"
       id="rect4099"
       style="fill:none;stroke:#ffffff;stroke-width:10.81563091;stroke-linecap:butt;stroke-linejoin:miter;stroke-miterlimit:4;stroke-opacity:1;stroke-dasharray:none;stroke-dashoffset:0" />
    <rect
       width="87.886971"
       height="117.42419"
       ry="14.506644"
       x="1082.3162"
       y="903.2934"
       id="rect4101"
       style="opacity:0.75;fill:#fafaff;fill-opacity:1;fill-rule:nonzero;stroke:none" />
    <rect
       width="155.18965"
       height="118.65352"
       ry="19.258966"
       x="-400.59747"
       y="900.14886"
       transform="scale(-1,1)"
       id="rect4103"
       style="fill:none;stroke:#ffffff;stroke-width:10.81563091;stroke-linecap:butt;stroke-linejoin:miter;stroke-miterlimit:4;stroke-opacity:1;stroke-dasharray:none;stroke-dashoffset:0" />
    <rect
       width="29.787916"
       height="122.37652"
       ry="15.118458"
       x="-396.69122"
       y="894.72937"
       transform="scale(-1,1)"
       id="rect4105"
       style="opacity:0.75;fill:#fafaff;fill-opacity:1;fill-rule:nonzero;stroke:none" />
    <rect
       width="155.18965"
       height="118.65352"
       ry="19.258966"
       x="-400.59747"
       y="754.88055"
       transform="scale(-1,1)"
       id="rect4107"
       style="fill:none;stroke:#ffffff;stroke-width:10.81563091;stroke-linecap:butt;stroke-linejoin:miter;stroke-miterlimit:4;stroke-opacity:1;stroke-dasharray:none;stroke-dashoffset:0" />
    <rect
       width="119.42646"
       height="120.72575"
       ry="14.91452"
       x="-396.69122"
       y="752.76239"
       transform="scale(-1,1)"
       id="rect4109"
       style="opacity:0.75;fill:#fafaff;fill-opacity:1;fill-rule:nonzero;stroke:none" />
    <path
       d="m 607.46372,847.63779 c 69.59,-86.18883 205.69,-81.79696 267.68,4.0404 9.03,29.7689 7.98,58.278 -4.54,85.3536 -78.53,71.91711 -180.37,76.41261 -261.62,-2.5253 -10.96,-27.9107 -17.22,-56.2913 -1.52,-86.8687 z"
       id="path3008"
       style="fill:none;stroke:#ffffff;stroke-width:10;stroke-linecap:butt;stroke-linejoin:miter;stroke-miterlimit:4;stroke-opacity:1;stroke-dasharray:none"
       inkscape:connector-curvature="0" />
  </g>
</svg>
