<?xml version="1.0" encoding="UTF-8" standalone="no"?>
<!-- Created with Inkscape (http://www.inkscape.org/) -->

<svg
   xmlns:dc="http://purl.org/dc/elements/1.1/"
   xmlns:cc="http://creativecommons.org/ns#"
   xmlns:rdf="http://www.w3.org/1999/02/22-rdf-syntax-ns#"
   xmlns:svg="http://www.w3.org/2000/svg"
   xmlns="http://www.w3.org/2000/svg"
   xmlns:sodipodi="http://sodipodi.sourceforge.net/DTD/sodipodi-0.dtd"
   xmlns:inkscape="http://www.inkscape.org/namespaces/inkscape"
   width="571"
   height="168"
   id="svg3528"
   version="1.1"
   inkscape:version="0.48.2 r9819"
   sodipodi:docname="Players_3_plain.svg">
  <defs
     id="defs3530" />
  <sodipodi:namedview
     id="base"
     pagecolor="#ffffff"
     bordercolor="#666666"
     borderopacity="1.0"
     inkscape:pageopacity="0.0"
     inkscape:pageshadow="2"
     inkscape:zoom="1.4"
     inkscape:cx="389.32096"
     inkscape:cy="84.772934"
     inkscape:document-units="px"
     inkscape:current-layer="layer1"
     showgrid="false"
     showborder="true"
     borderlayer="false"
     inkscape:window-width="1680"
     inkscape:window-height="988"
     inkscape:window-x="-8"
     inkscape:window-y="-8"
     inkscape:window-maximized="1" />
  <metadata
     id="metadata3533">
    <rdf:RDF>
      <cc:Work
         rdf:about="">
        <dc:format>image/svg+xml</dc:format>
        <dc:type
           rdf:resource="http://purl.org/dc/dcmitype/StillImage" />
        <dc:title></dc:title>
      </cc:Work>
    </rdf:RDF>
  </metadata>
  <g
     inkscape:label="Layer 1"
     inkscape:groupmode="layer"
     id="layer1"
     transform="translate(0,-884.36218)">
    <path
       style="fill:#ffffff;fill-opacity:0.70588235;stroke:#ffffff;stroke-width:4.74737072;stroke-linecap:butt;stroke-linejoin:miter;stroke-miterlimit:4;stroke-opacity:1;stroke-dasharray:none"
       d="m 153.42535,1038.7822 0,-33.0099 c 0.75472,-14.13747 9.79668,-21.17301 21.42307,-21.13428 l 33.52318,0.20126 c 13.75565,-0.0564 19.65921,10.23927 19.43946,17.91392 l 0.59506,36.6328 z"
       id="path5304-2"
       inkscape:connector-curvature="0"
       sodipodi:nodetypes="ccccccc" />
    <path
       sodipodi:type="arc"
       style="fill:#ffffff;fill-opacity:0.70588235;stroke:#ffffff;stroke-width:10;stroke-linecap:butt;stroke-linejoin:miter;stroke-miterlimit:4;stroke-opacity:1;stroke-dasharray:none;stroke-dashoffset:0"
       id="path5306-4"
       sodipodi:cx="-793.81158"
       sodipodi:cy="1232.9524"
       sodipodi:rx="58.083775"
       sodipodi:ry="59.767361"
       d="m -735.72781,1232.9524 c 0,33.0086 -26.00499,59.7674 -58.08377,59.7674 -32.07879,0 -58.08378,-26.7588 -58.08378,-59.7674 0,-33.0086 26.00499,-59.7674 58.08378,-59.7674 32.07878,0 58.08377,26.7588 58.08377,59.7674 z"
       transform="matrix(0.47128372,0,0,0.47821577,563.63764,360.40072)" />
    <path
       sodipodi:nodetypes="ccccccc"
       inkscape:connector-curvature="0"
       id="path5308-5"
       d="m 242.96357,1040.3233 0,-39.5853 c 0.90506,-16.95375 11.74815,-25.3907 25.6905,-25.34426 l 40.20092,0.24135 c 16.49581,-0.0675 23.57539,12.27893 23.31178,21.48229 l 0.71364,43.93002 z"
       style="fill:#ffffff;fill-opacity:0.70588235;stroke:#ffffff;stroke-width:5.69303989;stroke-linecap:butt;stroke-linejoin:miter;stroke-miterlimit:4;stroke-opacity:1;stroke-dasharray:none" />
    <path
       transform="matrix(0.56516272,0,0,0.57347562,734.88954,226.80926)"
       d="m -735.72781,1232.9524 c 0,33.0086 -26.00499,59.7674 -58.08377,59.7674 -32.07879,0 -58.08378,-26.7588 -58.08378,-59.7674 0,-33.0086 26.00499,-59.7674 58.08378,-59.7674 32.07878,0 58.08377,26.7588 58.08377,59.7674 z"
       sodipodi:ry="59.767361"
       sodipodi:rx="58.083775"
       sodipodi:cy="1232.9524"
       sodipodi:cx="-793.81158"
       id="path5310-5"
       style="fill:#ffffff;fill-opacity:0.70588235;stroke:#ffffff;stroke-width:10;stroke-linecap:butt;stroke-linejoin:miter;stroke-miterlimit:4;stroke-opacity:1;stroke-dasharray:none;stroke-dashoffset:0"
       sodipodi:type="arc" />
    <path
       style="fill:#ffffff;fill-opacity:0.70588235;stroke:#ffffff;stroke-width:4.74737072;stroke-linecap:butt;stroke-linejoin:miter;stroke-miterlimit:4;stroke-opacity:1;stroke-dasharray:none"
       d="m 346.71018,1040.92 0,-33.0099 c 0.75478,-14.13753 9.79662,-21.17307 21.42306,-21.13434 l 33.52313,0.20126 c 13.75571,-0.0564 19.65926,10.23927 19.43946,17.91388 l 0.59507,36.6329 z"
       id="path5316-1"
       inkscape:connector-curvature="0"
       sodipodi:nodetypes="ccccccc" />
    <path
       sodipodi:type="arc"
       style="fill:#ffffff;fill-opacity:0.70588235;stroke:#ffffff;stroke-width:10;stroke-linecap:butt;stroke-linejoin:miter;stroke-miterlimit:4;stroke-opacity:1;stroke-dasharray:none;stroke-dashoffset:0"
       id="path5318-7"
       sodipodi:cx="-793.81158"
       sodipodi:cy="1232.9524"
       sodipodi:rx="58.083775"
       sodipodi:ry="59.767361"
       d="m -735.72781,1232.9524 c 0,33.0086 -26.00499,59.7674 -58.08377,59.7674 -32.07879,0 -58.08378,-26.7588 -58.08378,-59.7674 0,-33.0086 26.00499,-59.7674 58.08378,-59.7674 32.07878,0 58.08377,26.7588 58.08377,59.7674 z"
       transform="matrix(0.47128372,0,0,0.47821577,756.92241,362.53847)" />
  </g>
</svg>
