<?xml version="1.0" encoding="UTF-8" standalone="no"?>
<!-- Created with Inkscape (http://www.inkscape.org/) -->

<svg
   xmlns:dc="http://purl.org/dc/elements/1.1/"
   xmlns:cc="http://creativecommons.org/ns#"
   xmlns:rdf="http://www.w3.org/1999/02/22-rdf-syntax-ns#"
   xmlns:svg="http://www.w3.org/2000/svg"
   xmlns="http://www.w3.org/2000/svg"
   xmlns:sodipodi="http://sodipodi.sourceforge.net/DTD/sodipodi-0.dtd"
   xmlns:inkscape="http://www.inkscape.org/namespaces/inkscape"
   width="1024"
   height="1024"
   id="svg3350"
   version="1.1"
   inkscape:version="0.48.2 r9819"
   sodipodi:docname="Button_Play_v5_finall2.svg">
  <defs
     id="defs3352" />
  <sodipodi:namedview
     id="base"
     pagecolor="#ffffff"
     bordercolor="#666666"
     borderopacity="1.0"
     inkscape:pageopacity="0.0"
     inkscape:pageshadow="2"
     inkscape:zoom="0.7"
     inkscape:cx="715.23908"
     inkscape:cy="472.86667"
     inkscape:document-units="px"
     inkscape:current-layer="layer1"
     showgrid="false"
     inkscape:window-width="1680"
     inkscape:window-height="988"
     inkscape:window-x="-8"
     inkscape:window-y="-8"
     inkscape:window-maximized="1" />
  <metadata
     id="metadata3355">
    <rdf:RDF>
      <cc:Work
         rdf:about="">
        <dc:format>image/svg+xml</dc:format>
        <dc:type
           rdf:resource="http://purl.org/dc/dcmitype/StillImage" />
        <dc:title></dc:title>
      </cc:Work>
    </rdf:RDF>
  </metadata>
  <g
     inkscape:label="Layer 1"
     inkscape:groupmode="layer"
     id="layer1"
     transform="translate(0,-28.362183)">
    <path
       style="opacity:0.75;fill:#505050;fill-opacity:1;stroke:none"
       d="M 13.166311,542.04415 C 7.007391,297.17699 212.13134,37.151717 530.97704,40.528897 789.17237,45.818257 1013.6251,231.48738 1016.6829,550.63226 1011.001,865.19649 763.46737,1028.3314 531.34548,1042.3017 227.69189,1051.1169 9.311641,783.4323 13.166311,542.04415 z"
       id="path3036-1"
       inkscape:connector-curvature="0"
       sodipodi:nodetypes="ccccc" />
    <text
       sodipodi:linespacing="125%"
       id="text4031"
       y="552.40704"
       x="572.66058"
       style="font-size:150.01124573px;font-style:normal;font-weight:normal;line-height:125%;letter-spacing:0px;word-spacing:0px;fill:#ffffff;fill-opacity:1;stroke:none;display:inline;font-family:Sans"
       xml:space="preserve"
       inkscape:export-filename="C:\Users\Liam\Google Drive\PowerCrux\Design\Finall\Game_Play_2.png"
       inkscape:export-xdpi="27.533792"
       inkscape:export-ydpi="27.533792"><tspan
         style="font-weight:bold;-inkscape-font-specification:Sans Bold"
         y="552.40704"
         x="572.66058"
         id="tspan4033"
         sodipodi:role="line">o</tspan></text>
    <path
       style="fill:#ffff00;fill-opacity:1;stroke:#ffffff;stroke-width:25.23167229;stroke-linecap:butt;stroke-linejoin:miter;stroke-miterlimit:4;stroke-opacity:1;stroke-dasharray:none;display:inline"
       d="m 350.03275,283.06841 c 0,528.66368 0,528.66368 0,528.66368 L 766.5557,539.39021 z"
       id="path3920"
       inkscape:connector-curvature="0"
       inkscape:export-filename="C:\Users\Liam\Google Drive\PowerCrux\Design\Finall\Game_Play_2.png"
       inkscape:export-xdpi="27.533792"
       inkscape:export-ydpi="27.533792" />
    <path
       style="fill:none;stroke:#ffffff;stroke-width:4.68823338;stroke-linecap:butt;stroke-linejoin:miter;stroke-miterlimit:4;stroke-opacity:1;stroke-dasharray:none"
       d="m 468.56915,874.75784 -25.95116,-34.05441 48.73157,12.45678 -26.21738,-34.40445"
       id="path3017"
       inkscape:connector-curvature="0"
       sodipodi:nodetypes="cccc" />
    <path
       style="fill:none;stroke:#ffffff;stroke-width:5.22182894;stroke-linecap:butt;stroke-linejoin:miter;stroke-miterlimit:4;stroke-opacity:1;stroke-dasharray:none"
       d="m 524.53333,833.12675 -20.87687,14.56345 c 0,0 -0.47909,0.3475 -25.87459,-34.66114 l 20.12175,-14.59644"
       id="path3787"
       inkscape:connector-curvature="0" />
    <path
       style="fill:none;stroke:#ffffff;stroke-width:5.22182894;stroke-linecap:butt;stroke-linejoin:miter;stroke-miterlimit:4;stroke-opacity:1;stroke-dasharray:none"
       d="m 489.37547,829.01128 19.64266,-14.24889"
       id="path3789"
       inkscape:connector-curvature="0" />
    <path
       style="fill:none;stroke:#ffffff;stroke-width:5;stroke-linecap:butt;stroke-linejoin:miter;stroke-miterlimit:4;stroke-opacity:1;stroke-dasharray:none"
       d="m 505.24351,791.72326 50.99715,20.41173"
       id="path3791"
       inkscape:connector-curvature="0" />
    <path
       style="fill:none;stroke:#ffffff;stroke-width:5;stroke-linecap:butt;stroke-linejoin:miter;stroke-miterlimit:4;stroke-opacity:1;stroke-dasharray:none"
       d="m 530.7085,829.40822 -2.04907,-55.29499"
       id="path3793"
       inkscape:connector-curvature="0" />
    <path
       style="fill:none;stroke:#ffffff;stroke-width:5;stroke-linecap:butt;stroke-linejoin:miter;stroke-miterlimit:4;stroke-opacity:1;stroke-dasharray:none"
       d="m 535.97827,771.29999 26.98319,-19.57377"
       id="path3795"
       inkscape:connector-curvature="0" />
    <path
       style="fill:none;stroke:#ffffff;stroke-width:5;stroke-linecap:butt;stroke-linejoin:miter;stroke-miterlimit:4;stroke-opacity:1;stroke-dasharray:none"
       d="m 550.5841,761.32879 25.39295,35.86532"
       id="path3797"
       inkscape:connector-curvature="0" />
    <path
       style="fill:none;stroke:#ffffff;stroke-width:5;stroke-linecap:butt;stroke-linejoin:miter;stroke-miterlimit:4;stroke-opacity:1;stroke-dasharray:none"
       d="m 581.47131,735.44852 c 5.0318,-3.68109 9.79333,-8.40792 14.36887,-9.1737 8.30816,-1.39044 15.72562,6.50999 10.43406,17.39984 -1.82793,3.76181 -5.41962,5.92191 -11.7855,9.87098"
       id="path3801"
       inkscape:connector-curvature="0"
       sodipodi:nodetypes="cssc" />
    <path
       style="fill:none;stroke:#ffffff;stroke-width:5;stroke-linecap:butt;stroke-linejoin:miter;stroke-miterlimit:4;stroke-opacity:1;stroke-dasharray:none"
       d="m 628.01569,755.38913 -17.94188,-8.85083 c -6.745,-1.64846 -10.6721,4.44019 -15.92191,6.89706"
       id="path3803"
       inkscape:connector-curvature="0"
       sodipodi:nodetypes="ccc" />
    <path
       style="fill:none;stroke:#ffffff;stroke-width:5.02687216;stroke-linecap:butt;stroke-linejoin:miter;stroke-miterlimit:4;stroke-opacity:1;stroke-dasharray:none"
       d="m 580.37841,733.18072 c 27.47493,38.68962 27.47493,38.68962 27.47493,38.68962"
       id="path3805"
       inkscape:connector-curvature="0" />
    <path
       style="fill:none;stroke:#ffffff;stroke-width:5;stroke-linecap:butt;stroke-linejoin:miter;stroke-miterlimit:4;stroke-opacity:1;stroke-dasharray:none"
       d="m 644.99342,688.47589 c 9.19702,12.80429 16.60479,25.70435 24.38825,26.84393 13.74057,2.01174 18.70737,-2.3118 17.80734,-14.36913 -0.59313,-7.94606 -18.53452,-31.45369 -18.55515,-31.49564"
       id="path3807"
       inkscape:connector-curvature="0"
       sodipodi:nodetypes="cssc" />
    <path
       style="fill:none;stroke:#ffffff;stroke-width:5;stroke-linecap:butt;stroke-linejoin:miter;stroke-miterlimit:4;stroke-opacity:1;stroke-dasharray:none"
       d="m 719.59966,637.31533 c 7.34147,-5.51804 15.06077,-10.40407 20.61251,-10.34146 20.05431,0.22613 27.70831,19.71868 20.10558,32.02432 -3.22305,5.21678 -15.2489,12.56721 -15.2489,12.56721"
       id="path3809"
       inkscape:connector-curvature="0"
       sodipodi:nodetypes="cssc" />
    <path
       style="fill:none;stroke:#ffffff;stroke-width:5.27099371;stroke-linecap:butt;stroke-linejoin:miter;stroke-miterlimit:4;stroke-opacity:1;stroke-dasharray:none"
       d="m 718.5535,635.013 c 28.01525,38.62007 28.18005,38.84725 28.18005,38.84725"
       id="path3811"
       inkscape:connector-curvature="0" />
    <path
       style="fill:none;stroke:#ffffff;stroke-width:4.76186466;stroke-linecap:butt;stroke-linejoin:miter;stroke-miterlimit:4;stroke-opacity:1;stroke-dasharray:none"
       d="m 621.23649,733.79517 c -3.29317,-4.93186 -4.28584,-9.32162 -4.48613,-12.90105 -1.04454,-18.66623 12.85243,-19.40186 22.7657,-15.40555 6.463,2.6054 10.32397,8.42255 10.37587,8.46102"
       id="path3815"
       inkscape:connector-curvature="0"
       sodipodi:nodetypes="cssc" />
    <path
       style="fill:none;stroke:#ffffff;stroke-width:4.76186466;stroke-linecap:butt;stroke-linejoin:miter;stroke-miterlimit:4;stroke-opacity:1;stroke-dasharray:none"
       d="m 619.93873,732.20012 c 3.66591,4.66146 7.53062,6.96782 10.87106,8.26938 17.41978,6.78749 22.43312,-6.1945 21.71164,-16.85859 -0.47036,-6.9525 -4.80155,-12.42854 -4.82202,-12.48982"
       id="path3815-1"
       inkscape:connector-curvature="0"
       sodipodi:nodetypes="cssc" />
    <path
       style="fill:none;stroke:#ffffff;stroke-width:4.68823338;stroke-linecap:butt;stroke-linejoin:miter;stroke-miterlimit:4;stroke-opacity:1;stroke-dasharray:none"
       d="m 707.25265,700.22465 -25.95115,-34.05432 48.73157,12.45679 -26.21738,-34.40448"
       id="path3017-7"
       inkscape:connector-curvature="0"
       sodipodi:nodetypes="cccc" />
    <path
       style="fill:none;stroke:#ffffff;stroke-width:4.68823338;stroke-linecap:butt;stroke-linejoin:miter;stroke-miterlimit:4;stroke-opacity:1;stroke-dasharray:none"
       d="m 770.51813,421.90599 -21.39817,37.08475 -7.31868,-49.7632 -21.61843,37.46548"
       id="path3017-4"
       inkscape:connector-curvature="0"
       sodipodi:nodetypes="cccc" />
    <path
       style="fill:none;stroke:#ffffff;stroke-width:5.22182894;stroke-linecap:butt;stroke-linejoin:miter;stroke-miterlimit:4;stroke-opacity:1;stroke-dasharray:none"
       d="m 710.51161,386.34829 21.49314,13.63753 c 0,0 0.50553,0.30783 -21.98751,37.24833 l -21.23211,-12.92821"
       id="path3787-0"
       inkscape:connector-curvature="0" />
    <path
       style="fill:none;stroke:#ffffff;stroke-width:5.22182894;stroke-linecap:butt;stroke-linejoin:miter;stroke-miterlimit:4;stroke-opacity:1;stroke-dasharray:none"
       d="M 720.2858,420.37 699.55923,407.74962"
       id="path3789-9"
       inkscape:connector-curvature="0" />
    <path
       style="fill:none;stroke:#ffffff;stroke-width:5;stroke-linecap:butt;stroke-linejoin:miter;stroke-miterlimit:4;stroke-opacity:1;stroke-dasharray:none"
       d="m 679.76259,420.12465 -0.85473,-54.92374"
       id="path3791-4"
       inkscape:connector-curvature="0" />
    <path
       style="fill:none;stroke:#ffffff;stroke-width:5;stroke-linecap:butt;stroke-linejoin:miter;stroke-miterlimit:4;stroke-opacity:1;stroke-dasharray:none"
       d="M 704.69769,382.08701 654.4789,405.32079"
       id="path3793-8"
       inkscape:connector-curvature="0" />
    <path
       style="fill:none;stroke:#ffffff;stroke-width:5;stroke-linecap:butt;stroke-linejoin:miter;stroke-miterlimit:4;stroke-opacity:1;stroke-dasharray:none"
       d="M 649.05866,399.65505 620.5865,382.31837"
       id="path3795-8"
       inkscape:connector-curvature="0" />
    <path
       style="fill:none;stroke:#ffffff;stroke-width:5;stroke-linecap:butt;stroke-linejoin:miter;stroke-miterlimit:4;stroke-opacity:1;stroke-dasharray:none"
       d="m 634.22246,390.02996 23.28428,-37.26881"
       id="path3797-2"
       inkscape:connector-curvature="0" />
    <path
       style="fill:none;stroke:#ffffff;stroke-width:5;stroke-linecap:butt;stroke-linejoin:miter;stroke-miterlimit:4;stroke-opacity:1;stroke-dasharray:none"
       d="m 598.42562,371.52609 c -5.33807,-3.22095 -11.53649,-5.78895 -14.00905,-9.7143 -4.4896,-7.1276 -0.0645,-17.01973 12.02388,-16.34166 4.17586,0.2342 7.55492,2.71378 13.65513,7.06199"
       id="path3801-4"
       inkscape:connector-curvature="0"
       sodipodi:nodetypes="cssc" />
    <path
       style="fill:none;stroke:#ffffff;stroke-width:5;stroke-linecap:butt;stroke-linejoin:miter;stroke-miterlimit:4;stroke-opacity:1;stroke-dasharray:none"
       d="m 598.85501,320.89189 -1.23945,19.96777 c 1.08282,6.85857 8.21544,8.13114 12.5083,12.02577"
       id="path3803-5"
       inkscape:connector-curvature="0"
       sodipodi:nodetypes="ccc" />
    <path
       style="fill:none;stroke:#ffffff;stroke-width:5.02687216;stroke-linecap:butt;stroke-linejoin:miter;stroke-miterlimit:4;stroke-opacity:1;stroke-dasharray:none"
       d="m 596.75541,373.40966 c 25.08608,-40.27961 25.08608,-40.27961 25.08608,-40.27961"
       id="path3805-5"
       inkscape:connector-curvature="0" />
    <path
       style="fill:none;stroke:#ffffff;stroke-width:5;stroke-linecap:butt;stroke-linejoin:miter;stroke-miterlimit:4;stroke-opacity:1;stroke-dasharray:none"
       d="m 530.57415,331.058 c 8.26199,-13.42663 17.30296,-25.23966 15.34985,-32.85978 -3.44793,-13.45222 -9.35355,-16.36524 -20.12906,-10.8809 -7.10131,3.61429 -21.86186,29.23905 -21.8926,29.27427"
       id="path3807-1"
       inkscape:connector-curvature="0"
       sodipodi:nodetypes="cssc" />
    <path
       style="fill:none;stroke:#ffffff;stroke-width:5;stroke-linecap:butt;stroke-linejoin:miter;stroke-miterlimit:4;stroke-opacity:1;stroke-dasharray:none"
       d="m 454.58092,281.98129 c -7.92417,-4.64259 -15.41113,-9.87767 -17.49631,-15.02332 -7.53224,-18.58743 7.49527,-33.17225 21.78186,-30.90862 6.05655,0.95963 17.47923,9.21627 17.47923,9.21627"
       id="path3809-7"
       inkscape:connector-curvature="0"
       sodipodi:nodetypes="cssc" />
    <path
       style="fill:none;stroke:#ffffff;stroke-width:5.27099371;stroke-linecap:butt;stroke-linejoin:miter;stroke-miterlimit:4;stroke-opacity:1;stroke-dasharray:none"
       d="m 452.86081,283.83506 c 24.81338,-40.75122 24.95934,-40.99093 24.95934,-40.99093"
       id="path3811-1"
       inkscape:connector-curvature="0" />
    <path
       style="fill:none;stroke:#ffffff;stroke-width:4.76186466;stroke-linecap:butt;stroke-linejoin:miter;stroke-miterlimit:4;stroke-opacity:1;stroke-dasharray:none"
       d="m 581.55128,335.48085 c -3.2785,4.94161 -6.9449,7.55177 -10.16963,9.11818 -16.81645,8.16859 -22.85919,-4.36739 -22.99904,-15.05493 -0.0912,-6.96781 3.78482,-12.77494 3.80028,-12.83766"
       id="path3815-15"
       inkscape:connector-curvature="0"
       sodipodi:nodetypes="cssc" />
    <path
       style="fill:none;stroke:#ffffff;stroke-width:4.76186466;stroke-linecap:butt;stroke-linejoin:miter;stroke-miterlimit:4;stroke-opacity:1;stroke-dasharray:none"
       d="m 580.58077,337.29372 c 2.88519,-5.18111 3.52105,-9.63656 3.43236,-13.22051 -0.46246,-18.68969 -14.37349,-18.30354 -23.93264,-13.5217 -6.23214,3.11753 -9.61198,9.22678 -9.66061,9.26931"
       id="path3815-1-2"
       inkscape:connector-curvature="0"
       sodipodi:nodetypes="cssc" />
    <path
       style="fill:none;stroke:#ffffff;stroke-width:4.68823338;stroke-linecap:butt;stroke-linejoin:miter;stroke-miterlimit:4;stroke-opacity:1;stroke-dasharray:none"
       d="m 517.38074,269.08883 -21.39819,37.08473 -7.31868,-49.7632 -21.61844,37.46549"
       id="path3017-7-7"
       inkscape:connector-curvature="0"
       sodipodi:nodetypes="cccc" />
    <path
       style="fill:none;stroke:#ffffff;stroke-width:4.68823338;stroke-linecap:butt;stroke-linejoin:miter;stroke-miterlimit:4;stroke-opacity:1;stroke-dasharray:none"
       d="m 240.26354,364.09685 42.8017,-1.08362 -38.64235,32.19794 43.24143,-1.09427"
       id="path3017-6"
       inkscape:connector-curvature="0"
       sodipodi:nodetypes="cccc" />
    <path
       style="fill:none;stroke:#ffffff;stroke-width:5.22182894;stroke-linecap:butt;stroke-linejoin:miter;stroke-miterlimit:4;stroke-opacity:1;stroke-dasharray:none"
       d="m 241.22046,433.8408 0.42642,-25.45105 c 0,0 -0.001,-0.59187 43.24863,-0.6661 l 0.0427,24.85838"
       id="path3787-1"
       inkscape:connector-curvature="0" />
    <path
       style="fill:none;stroke:#ffffff;stroke-width:5.22182894;stroke-linecap:butt;stroke-linejoin:miter;stroke-miterlimit:4;stroke-opacity:1;stroke-dasharray:none"
       d="m 265.1511,407.75754 0.0417,24.2665"
       id="path3789-4"
       inkscape:connector-curvature="0" />
    <path
       style="fill:none;stroke:#ffffff;stroke-width:5;stroke-linecap:butt;stroke-linejoin:miter;stroke-miterlimit:4;stroke-opacity:1;stroke-dasharray:none"
       d="m 286.0762,442.46102 -46.41667,29.37415"
       id="path3791-2"
       inkscape:connector-curvature="0" />
    <path
       style="fill:none;stroke:#ffffff;stroke-width:5;stroke-linecap:butt;stroke-linejoin:miter;stroke-miterlimit:4;stroke-opacity:1;stroke-dasharray:none"
       d="m 240.6168,441.02382 46.01476,30.73073"
       id="path3793-3"
       inkscape:connector-curvature="0" />
    <path
       style="fill:none;stroke:#ffffff;stroke-width:5;stroke-linecap:butt;stroke-linejoin:miter;stroke-miterlimit:4;stroke-opacity:1;stroke-dasharray:none"
       d="m 284.62426,479.33415 0.0572,33.33498"
       id="path3795-2"
       inkscape:connector-curvature="0" />
    <path
       style="fill:none;stroke:#ffffff;stroke-width:5;stroke-linecap:butt;stroke-linejoin:miter;stroke-miterlimit:4;stroke-opacity:1;stroke-dasharray:none"
       d="m 284.14953,497.01266 -43.94244,-0.42965"
       id="path3797-21"
       inkscape:connector-curvature="0" />
    <path
       style="fill:none;stroke:#ffffff;stroke-width:5;stroke-linecap:butt;stroke-linejoin:miter;stroke-miterlimit:4;stroke-opacity:1;stroke-dasharray:none"
       d="m 287.03097,537.20601 c 0.0358,6.23444 1.07743,12.86241 -0.98225,17.01929 -3.73996,7.54796 -14.48805,8.9315 -20.21408,-1.7363 -1.97802,-3.68511 -1.62471,-7.8614 -1.09619,-15.33403"
       id="path3801-6"
       inkscape:connector-curvature="0"
       sodipodi:nodetypes="cssc" />
    <path
       style="fill:none;stroke:#ffffff;stroke-width:5;stroke-linecap:butt;stroke-linejoin:miter;stroke-miterlimit:4;stroke-opacity:1;stroke-dasharray:none"
       d="m 243.60452,563.24735 17.68348,-9.35644 c 5.28719,-4.5009 2.65304,-11.25035 3.73715,-16.94434"
       id="path3803-8"
       inkscape:connector-curvature="0"
       sodipodi:nodetypes="ccc" />
    <path
       style="fill:none;stroke:#ffffff;stroke-width:5.02687216;stroke-linecap:butt;stroke-linejoin:miter;stroke-miterlimit:4;stroke-opacity:1;stroke-dasharray:none"
       d="m 289.50915,537.64872 c -47.45104,-0.39675 -47.45104,-0.39675 -47.45104,-0.39675"
       id="path3805-57"
       inkscape:connector-curvature="0" />
    <path
       style="fill:none;stroke:#ffffff;stroke-width:5;stroke-linecap:butt;stroke-linejoin:miter;stroke-miterlimit:4;stroke-opacity:1;stroke-dasharray:none"
       d="m 287.88966,616.20442 c -15.76492,-0.0468 -30.55934,-1.5999 -36.04242,4.04074 -9.67957,9.95773 -9.08502,16.51582 1.21421,22.84949 6.78742,4.17404 36.34937,3.40383 36.39546,3.41169"
       id="path3807-6"
       inkscape:connector-curvature="0"
       sodipodi:nodetypes="cssc" />
    <path
       style="fill:none;stroke:#ffffff;stroke-width:5;stroke-linecap:butt;stroke-linejoin:miter;stroke-miterlimit:4;stroke-opacity:1;stroke-dasharray:none"
       d="m 285.64949,706.63935 c 0.17157,9.18241 -0.3904,18.30079 -3.69331,22.76358 -11.93095,16.12078 -32.21255,10.90544 -37.73217,-2.46483 -2.33994,-5.66811 -1.25253,-19.72041 -1.25253,-19.72041"
       id="path3809-1"
       inkscape:connector-curvature="0"
       sodipodi:nodetypes="cssc" />
    <path
       style="fill:none;stroke:#ffffff;stroke-width:5.27099371;stroke-linecap:butt;stroke-linejoin:miter;stroke-miterlimit:4;stroke-opacity:1;stroke-dasharray:none"
       d="m 288.12827,707.14017 c -47.71119,0.0819 -47.99185,0.0824 -47.99185,0.0824"
       id="path3811-8"
       inkscape:connector-curvature="0" />
    <path
       style="fill:none;stroke:#ffffff;stroke-width:4.76186466;stroke-linecap:butt;stroke-linejoin:miter;stroke-miterlimit:4;stroke-opacity:1;stroke-dasharray:none"
       d="m 265.0768,570.40265 c 5.92618,0.22007 10.06541,1.98704 13.08374,3.92152 15.7401,10.08802 8.19558,21.78185 -0.85039,27.47516 -5.89756,3.71179 -12.87386,3.4333 -12.93544,3.45283"
       id="path3815-9"
       inkscape:connector-curvature="0"
       sodipodi:nodetypes="cssc" />
    <path
       style="fill:none;stroke:#ffffff;stroke-width:4.76186466;stroke-linecap:butt;stroke-linejoin:miter;stroke-miterlimit:4;stroke-opacity:1;stroke-dasharray:none"
       d="m 267.12974,570.28524 c -5.9254,0.24042 -10.05854,2.02158 -13.0702,3.96642 -15.70538,10.14199 -8.12076,21.80986 0.9447,27.47208 5.91027,3.69152 12.88557,3.38908 12.94722,3.40839"
       id="path3815-1-27"
       inkscape:connector-curvature="0"
       sodipodi:nodetypes="cssc" />
    <path
       style="fill:none;stroke:#ffffff;stroke-width:4.68823338;stroke-linecap:butt;stroke-linejoin:miter;stroke-miterlimit:4;stroke-opacity:1;stroke-dasharray:none"
       d="m 241.89673,659.78075 42.8017,-1.08362 -38.64235,32.19794 43.24144,-1.09427"
       id="path3017-7-9"
       inkscape:connector-curvature="0"
       sodipodi:nodetypes="cccc" />
    <path
       style="fill:none;stroke:#000000;stroke-width:15.95528793;stroke-linecap:butt;stroke-linejoin:miter;stroke-miterlimit:4;stroke-opacity:1;stroke-dasharray:none"
       d="M 11.323784,543.00927 C 5.1648587,298.14211 210.28882,38.116838 529.13452,41.494014 787.32989,46.783379 1011.7826,232.4525 1014.8404,551.59738 1009.1585,866.16161 761.62481,1029.2965 529.50296,1043.2668 225.84937,1052.082 7.4691119,784.39742 11.323784,543.00927 z"
       id="path3036"
       inkscape:connector-curvature="0"
       sodipodi:nodetypes="ccccc" />
  </g>
</svg>
